# xmcd
#
# Track frame offsets: 
#        150
#        17644
#        33958
#        48279
#        65123
#        83923
#        99417
#        114807
#        128790
#        142421
#        158916
#        172550
#        184289
#        197632
#        209562
#        223713
#        236500
#        252437
#        265693
#        277648
#        293114
#        308178
#        324379
#
# Disc length: 4555 seconds
#
# Revision: 2
# Processed by: cddbd v1.5.2PL0 Copyright (c) Steve Scherf et al.
# Submitted via: ExactAudioCopy v1.3
#
DISCID=4811c917
DTITLE=Various Artist - Club Sounds Vol.85
DYEAR=2018
DGENRE=Club
TTITLE0=Rudimental Feat. Jess Glynne, Macklemore and Dan Caplen - These 
TTITLE0=Days (Air Remix)
TTITLE1=Kygo and Miguel - Remind Me To Forget
TTITLE2=Jaehn, Felix Feat. Marc E. Bassy and Gucci Mane - Cool
TTITLE3=The Chainsmokers - Everybody Hates Me
TTITLE4=Axwell and Ingrosso - Dreamer (Matisse and Sadko Remix)
TTITLE5=Clean Bandit Feat. Julia Michaels - I Miss You
TTITLE6=Sigala and Paloma Faith - Lullaby
TTITLE7=Mc Fioti, J Balvin, Stefflon Don and Future - Bum Bum Tam Tam (J
TTITLE7=onas Blue Remix)
TTITLE8=Tom Walker - Leave A Light On (Desco and Luca Shreiner Remix)
TTITLE9=Craig David Feat. Bastille - I Know You (Sultan and Shepard Remi
TTITLE9=x)
TTITLE10=Vigiland Feat. Alexander Tidebrink - Be Your Friend
TTITLE11=Charming Horses X Alice France - Kill The Lights
TTITLE12=Lucas and Steve and Janieck - You Don't Have To Like It
TTITLE13=Sdjm and Conor Maynard - That Way
TTITLE14=Ko:yu Feat. Ruthanne - 15 Sleeps
TTITLE15=Lizot Feat. Filip Martin - Hide Another You
TTITLE16=Danny Avila and The Vamps Feat. Machine Gun Kelly - Too Good To
TTITLE16=Be True
TTITLE17=Louis Tomlinson - Miss You (Luca Shreiner Remix)
TTITLE18=Tujamo Feat. Miranda Glory and Haris - Body Language
TTITLE19=Darius and Finlay and Last Night Feat. Max Landry - Close My Eyes
TTITLE20=Bodybangers Feat. Menno and Polina Vita - Alibi
TTITLE21=Calmani and Grey - Winter Ocean (Lizot Remix)
TTITLE22=Faul and Wad vs. Avalanche City - I Need You (David Puentez and M
TTITLE22=TS Remix)
EXTD=
EXTT0=
EXTT1=
EXTT2=
EXTT3=
EXTT4=
EXTT5=
EXTT6=
EXTT7=
EXTT8=
EXTT9=
EXTT10=
EXTT11=
EXTT12=
EXTT13=
EXTT14=
EXTT15=
EXTT16=
EXTT17=
EXTT18=
EXTT19=
EXTT20=
EXTT21=
EXTT22=
PLAYORDER=
